<?xml version="1.0" encoding="utf-8"?>
<!-- Generator: Adobe Illustrator 19.2.1, SVG Export Plug-In . SVG Version: 6.00 Build 0)  -->
<svg version="1.1" id="Layer_1" xmlns="http://www.w3.org/2000/svg" xmlns:xlink="http://www.w3.org/1999/xlink" x="0px" y="0px"
	 viewBox="0 0 992.3 388.9" style="enable-background:new 0 0 992.3 388.9;" xml:space="preserve">
<style type="text/css">
	.st0{fill:#FFFFFF;}
	.st1{fill:#140A06;}
</style>
<rect width="992.3" height="388.9"/>
<path class="st0" d="M394,224.6c0,0,0,13.1,0.5,14.8c0.5,1.8,2.4,4.8,11.4,2c9.1-2.8,14.5-6,14.5-6L394,224.6"/>
<path class="st1" d="M645.4,258.5c-2.2-2.2-6.1-3.4-8.4-5.6c-1.8-1.6-5.2-12.1-7-13.6c-5.8-4.5-6.6-3.5-14.4-5.6c0-0.3,0-0.7,0-1
	c0-18.3-9.7-36.3-22.8-44.2c1-4.3,1.8-8.8,2.2-12.6c1.1-12.3-1.1-31.5-1.1-31.5s-2-15.9-14.1-28.7c-8.8-9.3-30.7-13.3-45.2-12.1
	c-7.9,0.6-19.1,4.2-28.3,9.8c-1.2-0.5-2.3-0.9-3.5-1.3c-16.8-4.6-30.4,9.3-30.4,31c0,7,1.4,14,4,20.4l-42.2-13.6h0
	c-4.9-1.7-7-2.2-9.4-1.5c1.9,0,3.8,2,4.5,7.7c1.1,8.5,0.5,25.4,0.5,25.4l-13.1-7.6c0.7,1.4,11.1,14.2,1.7,25.8l-3.5-3
	c0-1.1-0.1-2.2-0.3-3.2l-8-7.6l-0.6-57.7c0-1.2-0.2-2.2-0.7-2.9c-0.5-0.9-11.8-7-12.7-7.2c-0.9-0.2-2-0.1-3.1,0.5l-72,39.7
	c-3.2,1.7-5,5.5-4.9,9.5l-0.5,87.3c0,1.7,0.5,3,1.3,3.8c0.4,0.4,11.3,6.1,11.8,6.2c1,0.4,2.2,0.3,3.5-0.4l65.9-28.5c0,1.1,0,2,0,2.5
	c0,4.8,3.3,6.7,7.2,8.2c1.1,0.1,11.5,1.3,11.9,4.2c0.4,3,3.5,8.3,0.4,10c-3,1.7-3.9,3.5-1.7,6.1c2.2,2.6,7.4,9.1,7.4,9.1
	s-10.5-5.2-10.5-1.7c0,3.5,0.2,15.9,0.2,15.9l5.7,1.6c0,0,12.5,3.6,37.8,5.5c-0.2-2.8-3.4-6.2-6.3-12.6c-2.9-6.4-3.5-7.2-2.8-13.6
	c0.7-6.4,1.3-5.5,2.1-10.2c0.1-0.9,0-2-0.3-3.2l16.4,4.7l11.7,13.7c-0.1,0-0.1,0.1-0.2,0.1c2.4,0.4,9.3,1.6,10.5,2.4
	c1.5,1,14.8,12.2,14.3,16c-0.4,3.3,3.5,3.2,4.5,4.9c13.5-0.2,29.1-1,45.6-2.9c68.7-8,101-33.7,101-33.7
	C646.3,260.4,648.2,261.3,645.4,258.5"/>
<path class="st0" d="M496.6,294.6c-0.9-2.3-11.1-13-13.6-14.6c-0.6-0.4-4.3-1.2-10-2.2c0,0-0.3,0.1-1.1-0.9c0,0-0.7-1-0.7-1
	l-10.1-11.9c0,0-0.1-0.1-0.2-0.2c-0.2-0.1-0.5-0.2-0.5-0.2l-13.2-3.8c0,0.5,0,0.9-0.1,1.4c-0.3,2.1-0.6,3.1-0.9,4.1
	c-0.4,1.3-0.7,2.5-1.1,6c-0.6,5.6-0.2,6.4,2.2,11.7l0.5,1.1c1.2,2.7,2.5,4.9,3.6,6.7c1.6,2.6,2.8,4.5,2.9,6.4c0,0,0.1,0.9-0.3,1.3
	c-0.3,0.3-1.4,0.3-1.4,0.3c-25.2-1.9-37.6-5.4-38.1-5.6l-6.1-1.7c0,0-0.2-0.1-0.5-0.4c-0.2-0.3-0.2-0.8-0.2-0.8
	c0-0.1-0.2-12.4-0.2-15.9c0-1.2,0.8-2.7,3.1-2.7c1.1,0,2.6,0.3,4,0.8c-1.4-1.7-2.8-3.5-3.7-4.5c-1.3-1.5-1.7-2.9-1.5-4.3
	c0.4-2,2.3-3.3,3.7-4.1c1.1-0.6,0.5-2.7-0.3-5.3c-0.4-1.1-0.5-2.3-0.8-3.2c-0.4-0.9-8.2-2.5-11-3.2c-4.4-1-8.2-3.8-8.2-9.4v-0.2
	l-63.8,27.5c-1.6,0.8-3.2,1-4.6,0.4c-0.1,0-11.6-5.9-12.3-6.6c-1.1-1.2-1.7-2.8-1.7-4.8l0.5-87.3c-0.1-4.8,2.1-9,5.8-10.9l72-39.6
	c1.5-0.8,3-1,4.3-0.6c0.1,0,12.7,6.2,13.7,8c0.5,1,0.8,2.2,0.8,3.6l0.6,56.8c0,0,0,0.2,0,0.3c0,0.1,0.2,0.2,0.2,0.2l7.2,6.9
	c0,0,0.3,0.3,0.4,0.4c0.1,0.2,0.1,0.4,0.1,0.4c0.2,0.8,0.3,1.6,0.3,2.5c0,0.1,0,0.2,0,0.3c0,0,0.1,0.1,0.1,0.1l1.6,1.4
	c4.2-6.2,3.4-13.6-2.3-22.1c-0.3-0.4-0.5-0.7-0.5-0.9c0,0-2.1-2.7-1.8-3.6c0.3-0.8,2.3,0.6,2.3,0.6l12.5,7.3
	c0.1-5,0.2-16.3-0.6-22.6c-0.5-4-1.6-6.4-3.1-6.4l-7.4-0.2c0,0-0.9,0.1-0.9-0.2c-0.1-0.4,1.2-0.6,1.2-0.6l6.8-1.9
	c2.9-0.8,5.2-0.3,10.3,1.5l0,0l39.3,12.7c-2-5.9-3-12.1-3-18c0-19.3,10.7-33.3,25.6-33.3c2.2,0,4.5,0.3,6.7,0.9c0.9,0.3,1.9,0.6,3,1
	c8.7-5.2,19.8-9,28.3-9.7c1.6-0.1,3.4-0.2,5.2-0.2c14,0,32.9,4,41.2,12.8c12.3,12.9,14.4,28.8,14.5,29.5c0.1,0.8,2.2,19.5,1.1,31.8
	c-0.3,3.2-0.9,7.2-2,11.8c13.3,8.6,22.5,26.8,22.6,44.8c1.6,0.4,2.8,0.7,3.9,0.9c3.6,0.8,5.4,1.2,9.9,4.7c1.2,1,2.4,3.5,4.1,7.7
	c0.9,2.2,2.4,5.4,3,6c1,0.9,2.3,1.7,3.8,2.4c1.7,0.9,3.4,1.9,4.7,3.2c1.5,1.4,1.8,2.1,2.1,2.8c0.2,0.4,0.3,0.7,1.6,1.9
	c0,0,0.5,0.4,0.5,1.1c0,0.8-0.6,1.2-0.6,1.2c-0.3,0.3-33.3,26-101.7,34c-14.7,1.7-30.1,3.5-45.7,2.9
	C500.4,301.1,498.8,300.4,496.6,294.6z M474.3,275c0.2,0.1,0.6,0.2,0.8,0.2c4,0.7,8.3,1.6,9.5,2.3c0.2,0.1,13.6,12,14.9,17.5
	c0.5,2.2,2.4,3.8,3.2,3.8c10.9,0.3,30.9-1.9,45.3-3.5c59.8-7,92.1-27.6,98.9-32.4c-0.5-0.6-0.7-1-1-1.5c-0.2-0.4-0.3-0.7-1.5-1.9
	c-1-1-2.5-1.8-4-2.7c-1.5-0.8-3.1-1.7-4.3-2.8c-1-0.9-2.1-3.3-3.7-7c-1-2.2-2.6-5.9-3.2-6.5c-3.9-3.1-5.2-3.4-8.7-4.1
	c-1.3-0.3-3-0.6-5.2-1.3c0,0-0.6-0.3-0.8-0.5c-0.4-0.4-0.3-1-0.3-1c0-0.2,0-0.3,0-0.5c0-0.2,0-0.3,0-0.5c0-17.4-9.1-35-22.1-42.9
	c0,0-0.6-0.4-0.7-0.7c-0.1-0.2,0-0.9,0-0.9c1.1-4.9,1.8-9.1,2.1-12.4c1-12-1.1-31-1.1-31.2c0-0.1-2.1-15.6-13.7-27.8
	c-7.4-7.8-25.2-11.9-39-11.9c-1.7,0-3.4,0.1-5,0.2c-8.3,0.7-19.1,4.4-27.6,9.6c0,0-0.5,0.3-0.7,0.3c-0.2,0-0.7-0.2-0.7-0.2
	c-1.2-0.5-2.3-0.9-3.3-1.2c-2-0.5-4-0.8-5.9-0.8c-13.1,0-22.6,12.8-22.6,30.3c0,6.6,1.3,13.4,3.9,19.9l0.9,2.4c0,0,0.1,0.2,0,0.4
	c-0.1,0.1-0.3,0-0.3,0l-44.7-14.5c-1.9-0.7-3.4-1.2-4.6-1.4c0.7,1.4,1.4,3.3,1.7,6.1c1.1,8.5,0.6,24.9,0.5,25.6c0,0-0.1,1-0.5,1.5
	c-0.3,0.4-1.2,0.1-1.2,0.1l-8.6-5c3.3,6.6,4.8,14.9-1.4,22.6l-0.6,0.8c0,0-0.2,0.2-0.4,0.2c-0.2,0-0.4-0.2-0.4-0.2l-4.5-3.9
	c0,0-0.1-0.1-0.1-0.2c-0.1-0.1-0.1-0.3-0.1-0.3l0-0.4c0-0.8-0.1-1.5-0.2-2.2c0-0.1-0.1-0.2-0.1-0.2c0-0.1-0.1-0.2-0.1-0.2l-7.6-7.3
	c0,0-0.1-0.1-0.2-0.3c-0.1-0.2-0.1-0.4-0.1-0.4l-0.6-58c0-0.8-0.1-1.5-0.4-2.1c-1.4-1.2-10.8-6.2-11.9-6.6c-0.1,0-0.3,0-0.5,0
	c-0.5,0-1,0.1-1.6,0.4l-72,39.6c-2.6,1.3-4.2,4.5-4.2,8.2l-0.5,87.3c0,1.1,0.3,2.1,0.8,2.7c1.3,0.8,10.6,5.6,11.4,6
	c0.2,0.1,0.4,0.1,0.6,0.1c0.5,0,1-0.1,1.6-0.4l0.1,0l65.8-28.4c0,0,1.4-0.7,1.8-0.3c0.5,0.5,0.4,4.2,0.4,4.2c0,3.6,2,5.7,6.1,6.7
	c5.6,1.4,12.5,2.1,13,5.5c0.1,0.7,0.4,1.7,0.7,2.7c0.9,2.9,2.2,7-1,8.8c-1.7,1-2.1,1.6-2.2,2c-0.1,0.5,0.4,1.3,0.8,1.8
	c2.2,2.6,7.4,9.1,7.4,9.1c0,0,3,2.9,2.5,3.8c-0.5,1-4.4-1.5-4.4-1.5c-1.5-0.8-6-2.8-8.2-2.8c0,0-0.1,0-0.1,0
	c0,3.1,0.1,11.4,0.2,14.4l4.6,1.3c0.1,0,11.9,3.4,35.3,5.3c-0.4-0.9-1.1-2-1.8-3.3c-1.1-1.9-2.5-4.2-3.8-7l-0.5-1.1
	c-2.5-5.4-3.2-6.9-2.5-13.3c0.4-3.8,0.8-5.2,1.2-6.5c0.3-1,0.6-1.9,0.8-3.7c0.1-0.4,0.1-1.2-0.2-2.6c0,0-0.6-1.4-0.1-1.8
	c0.4-0.3,1.4-0.1,1.4-0.1l16.5,4.7c0,0,0.5,0.1,0.8,0.3c0.4,0.2,0.5,0.4,0.5,0.4l10.8,12.6C473.8,274.4,474.1,274.9,474.3,275z"/>
<path class="st0" d="M326,172.6c0,3.4-3.2,70.9-3.2,70.9s0.6-66.3,0.6-70.6c0-4.3,1.2-6.1,4.9-8c3.8-1.8,48.9-25.5,48.9-25.5
	s-44.8,25.5-47.1,27C327.7,168,326,169.2,326,172.6z"/>
<path class="st0" d="M360.6,227.3c-4.2-4.9-6.7-12.1-6.7-20.6c0-17.6,11-34.1,24.6-36.8c2.4-0.5,4.7-0.5,6.8-0.1
	c1.3,4.1,2.1,8.7,2.1,13.6C387.3,203.5,375.6,222.3,360.6,227.3z"/>
<path class="st0" d="M543.8,230.7c-2.7,1.5-12.8,9.3-20.8,6.2c-5.3-2.1-13.9-18.1-18.5-28.9c-2.5-5.9-3.8-13.9-4.4-20l7.3-4.2
	c1.7-0.3,3.3-1.1,4.6-2.5c3.6-3.9,2.3-11.3-1.2-16.3c-2.4-3.5-7.9-7.9-11.9-3.3l-5.7,2.8c-7.9,3.8-17.9,8.7-22.3,11
	c-4.4,2.2-12.4,6.6-15.6,2.2c-1.6-2.2-0.3-2.2-0.3-2.2s3.8-0.9,6.2-0.7c2,0.2,3.8,0,8.2-1.7c3.2-1.3,17.1-8.2,24.7-12
	c-0.8-8.6-2.1-16.2-2.1-16.2c3,10.6,32.3-5.6,32.3-5.6s-0.5,4.8,1,8.2c1.5,3.4,6.9,4.7-3.5,12.2c-10.4,7.4-3.1,11.2-4.2,14.1
	c-1.1,2.9-3.2,12.2-4.6,18.3c-1.4,6.2,1.3,7,3.8,7.6c2.6,0.6,7.8,0.8,7.8,0.8s-5.4,13.1-1.5,11.7c7.8-2.7,13.8-1.9,13.8-1.9
	c-5.6,3.3-12.6,5.6-12.6,5.6s3.3-0.2,4.7,8.3C530.3,232.6,546.5,229.3,543.8,230.7z"/>
<path d="M357.8,205.9c0,0,2-29,24.8-31.7c0,0,0.8,10.5,0,15.7C382.6,189.9,370.9,181.1,357.8,205.9"/>
<polyline class="st0" points="628.4,230.7 628.4,219.9 624.4,219.9 624.4,218.5 634.1,218.5 634.1,219.9 630,219.9 630,230.7 
	628.4,230.7 "/>
<path class="st0" d="M635.7,230.7v-12.2h2.4l2.9,8.6c0.3,0.8,0.5,1.4,0.6,1.8c0.1-0.4,0.4-1.1,0.6-2l2.9-8.5h2.2v12.2h-1.6v-10.2
	l-3.5,10.2h-1.5l-3.5-10.4v10.4H635.7"/>
<polyline class="st0" points="32.2,257.8 32.2,128.4 59.7,131.5 59.7,179.2 130.7,180.8 130.7,139.4 149.8,141.5 149.8,243.9 
	130.7,246.1 130.7,200.2 59.7,201.6 59.7,254.5 32.2,257.8 "/>
<path class="st0" d="M162.9,166.4c0-9,1.2-15.1,3.7-18.2c2.4-3,7.1-4.2,13.7-3.4l44.5,4.9c5.2,0.6,8.6,2.3,10.3,5.3
	c1.7,2.9,2.6,8.1,2.6,15.6V214c0,7.5-0.9,12.7-2.6,15.6c-1.7,2.9-5.2,4.7-10.3,5.3l-44.5,5.3c-6.7,0.8-11.3-0.3-13.7-3.3
	c-2.5-3-3.7-9.1-3.7-18.2V166.4 M179.4,222.4l46.3-3.5v-53.8l-46.3-3.2V222.4z"/>
<polyline class="st0" points="273.9,168.5 273.9,229.2 264.2,230.3 264.2,167.8 243.1,166.3 243.1,151.8 291.6,157.2 291.6,169.7 
	273.9,168.5 "/>
<path class="st0" d="M683.8,227.1v-69.9L718,153c3.6-0.4,6.3,0.5,7.9,2.7c1.7,2.3,2.5,6.2,2.5,11.7v19c0,5.5-0.8,9.4-2.5,11.9
	c-1.7,2.4-4.3,3.6-7.9,3.5l-5.7-0.2l21.3,31.7l-15.7-2l-17.1-30.1l-8.6-0.3v27.2L683.8,227.1 M713.4,167l-21.2,1.7v20l21.2-0.2
	c1.8,0,3-0.5,3.6-1.4c0.7-0.9,1-2.6,1-4.9v-9.4c0-2.3-0.3-3.8-1-4.7C716.4,167.2,715.2,166.8,713.4,167z"/>
<path class="st0" d="M738.3,170.3c0-7.6,0.9-12.8,2.6-15.8c1.8-3,5.2-4.9,10.5-5.5l45.6-5.6c6.9-0.8,11.7,0.2,14.3,3.3
	c2.6,3.1,3.9,9.4,3.9,18.7v54c0,9.4-1.3,15.6-3.9,18.7c-2.5,3.1-7.4,4.1-14.3,3.2l-45.6-5.7c-5.2-0.7-8.7-2.5-10.5-5.5
	c-1.7-3-2.6-8.3-2.6-15.9V170.3 M750.5,219.2L798,223v-62.2l-47.5,3.7V219.2z"/>
<path class="st0" d="M831.5,245.7V139.1l60.9-7.5c20.7-2.5,37.8,1,50.5,11.1c13.3,10.6,20.2,27.1,20.2,49.1c0,13-2.7,24.6-8.1,34.6
	c-5.2,9.8-12.5,17.1-21.5,21.9c-5.5,3-12.1,4.7-19.8,5.4c-7.5,0.6-16.8,0.2-27.6-1.1L831.5,245.7 M851.7,227.2l29.1,2.3
	c17.1,1.4,30-0.8,37.9-6.6c8.1-6,12.3-16.6,12.3-31.7c0-13.4-3.5-23.4-10.3-29.9c-6.6-6.3-16.1-8.9-28.1-8l-40.9,3.2V227.2z"/>
<polyline class="st0" points="329.4,129.4 182.6,76.1 181.6,96.6 12.2,59.6 202.1,129.4 203.1,107.9 329.4,129.4 "/>
<polyline class="st0" points="663.1,131.5 809.9,78.1 810.9,98.6 980.3,61.7 790.4,131.5 789.4,109.9 663.1,131.5 "/>
<polyline class="st0" points="663.1,254.7 809.9,308.1 810.9,287.6 980.3,324.5 790.4,254.7 789.4,276.3 663.1,254.7 "/>
<polyline class="st0" points="293.1,261.2 203.1,276.3 202.1,254.7 12.2,324.5 181.6,287.6 182.6,308.1 300.7,266.7 293.1,261.2 "/>
<path class="st0" d="M562.2,340.3c0.4-0.4,0.6-1.2,0.5-2.2l-0.5-4c-0.1-1-0.4-1.6-0.9-2c-0.5-0.3-1.4-0.4-2.7-0.3l-16.5,2l1.1,9.4
	l16.5-2C561,341,561.8,340.7,562.2,340.3"/>
<path class="st0" d="M496.8,75c62.6,0,118.9,14.7,158.3,38.2l84.1-36.5c-57.5-43-145.8-70.5-244.9-70.5
	c-97.2,0-184.1,26.5-241.6,68.1l87.6,38C379.4,89.4,435.1,75,496.8,75 M633.1,46l29.3,11.7l-1.9,5l-22.6-9.1l-2.5,6.5l13.2,5.3
	l-1.9,5l-13.2-5.3l-2.8,7.3l22.9,9.2l-2.1,5.5l-29.6-11.8L633.1,46z M575.8,31.3l4.8,1.1l17.3,22.8c0.6,0.8,1.1,1.5,1.5,2.1
	c0.4,0.7,0.8,1.3,1.2,2c0.3-1.8,0.4-3,0.5-3.7c0.1-0.7,0.2-1.3,0.3-1.7l3.4-16.1l6.3,1.4l-6.5,30.7l-4.8-1.1l-18-23.9
	c-0.4-0.6-0.8-1.1-1.1-1.6c-0.3-0.5-0.6-1-0.9-1.4c-0.1,1-0.2,1.9-0.4,2.7c-0.1,0.9-0.3,1.6-0.4,2.2l-3.5,16.6l-6.3-1.4L575.8,31.3z
	 M547.8,27.8l7.1,0.8l-3.5,31.2l-7.1-0.8L547.8,27.8z M492.4,24.8l7.2,0.2l-0.7,25.5l20.4,0.5l0.7-25.5l7.1,0.2l-0.6,24
	c-0.1,2.9-0.6,4.8-1.7,5.8c-1.1,1-3.1,1.5-6.1,1.4l-19.4-0.5c-3-0.1-5-0.7-6-1.7c-1-1.1-1.5-3-1.4-5.9L492.4,24.8z M439.6,28.3
	l23.2,16.5c0.8,0.5,1.5,1.1,2.1,1.6c0.6,0.5,1.2,1,1.7,1.5c-0.3-1.7-0.5-3-0.6-3.7c-0.1-0.7-0.2-1.3-0.2-1.7L464.3,26l6.4-0.6
	l2.8,31.3l-4.9,0.5l-24.2-17.3c-0.6-0.4-1.1-0.8-1.5-1.2c-0.4-0.4-0.9-0.7-1.2-1.1c0.2,1,0.3,1.9,0.5,2.7c0.1,0.9,0.2,1.6,0.3,2.2
	l1.5,16.9l-6.4,0.6l-2.8-31.3L439.6,28.3z M415.3,31.8l1.1,5.2l-23.7,5.3l1.5,6.9l13.9-3.1l1.1,5.2l-13.9,3.1l1.6,7.6l24-5.4
	l1.2,5.8l-31,7l-6.6-30.7L415.3,31.8z M331.7,65.5c-1-2.7-1.2-4.7-0.6-6c0.6-1.4,2.3-2.6,5.1-3.7l19.7-8c2.7-1.1,4.8-1.4,6.2-0.8
	c1.4,0.6,2.5,2.1,3.5,4.6l0.3,0.7l-6,3.8l-1.3-3.3l-20.8,8.4l7.1,18.5l20.8-8.4l-2.5-6.5l-10.9,4.4l-1.9-5l17.3-7l3.9,10.1
	c1,2.7,1.2,4.7,0.6,6.1c-0.6,1.4-2.3,2.6-5.1,3.7l-19.7,8c-2.8,1.1-4.8,1.4-6.2,0.8c-1.3-0.6-2.5-2.2-3.6-4.9L331.7,65.5z"/>
<polyline class="st0" points="384.2,337.6 397.8,340.6 394,325.7 384.2,337.6 "/>
<polyline class="st0" points="594.7,340.2 608.3,337 598.6,325.2 594.7,340.2 "/>
<path class="st0" d="M657,273.8c-39.5,24.2-96.6,39.4-160.3,39.4c-62.8,0-119.3-14.8-158.7-38.5l-87.6,37.6
	C308,354.9,395.8,382,494.2,382c100.3,0,189.6-28.2,247-72.1L657,273.8 M363.6,319.4l-1.1,3l-7.4-1.4l2.1-6l-18.8-6.9l-7.1,20.2
	l18.8,6.9l2.4-6.8l6.4,4.1l-1.3,3.8c-1,2.9-2.2,4.7-3.6,5.4c-1.4,0.7-3.5,0.5-6.4-0.6l-17.9-6.6c-2.9-1.1-4.7-2.3-5.3-3.8
	c-0.6-1.4-0.5-3.6,0.6-6.5l5.9-16.8c1-2.9,2.2-4.7,3.6-5.4c1.4-0.7,3.5-0.5,6.4,0.6l17.8,6.6c2.9,1.1,4.7,2.3,5.3,3.8
	C364.8,314.4,364.6,316.5,363.6,319.4z M401.7,355.4l-2.2-8.1l-19.7-4.5l-5.2,6.4l-7.2-1.6l24.7-29.1l7,1.6l10.7,37.1L401.7,355.4z
	 M466.1,363.6l-6.8-0.7l2-20.8c0-0.4,0.1-0.9,0.2-1.5c0.1-0.6,0.2-1.3,0.4-2.1c-0.5,0.8-0.9,1.5-1.3,2c-0.4,0.5-0.7,1-0.9,1.3
	l-13.5,15.7l-1.5-0.1l-10.3-18.1c-0.4-0.7-0.7-1.3-0.9-1.9c-0.3-0.6-0.5-1.2-0.6-1.7c0,0.7,0,1.3,0,1.9c0,0.6-0.1,1.1-0.1,1.7
	l-2,20.8l-6-0.6l3.2-33.7l6,0.6l13,21.9l16.5-18.9l5.9,0.6L466.1,363.6z M486.6,364.1l-0.4-33.9l32.5-0.4l0.1,5.8l-25.1,0.3l0.1,7.6
	l14.7-0.2l0.1,5.8l-14.7,0.2l0.1,8.4l25.4-0.3l0.1,6.4L486.6,364.1z M564.9,359.3l-14.2-11.2l-7,0.8l1.4,12.7l-7.2,0.9l-3.8-33.6
	l27-3.2c2.5-0.3,4.4,0,5.6,0.9c1.2,0.9,2,2.5,2.2,4.8l0.9,7.9c0.3,2.3-0.1,4-1.1,5.2c-1,1.2-2.8,1.9-5.3,2.2l-4.1,0.5l16,11
	L564.9,359.3z M617.9,348.7l-5.3-6.3l-19.6,4.6l-2,8.1l-7.2,1.7l10.2-37.1l6.9-1.6l25.1,28.9L617.9,348.7z M664.4,332.9l-18.4,7
	c-2.9,1.1-5.1,1.3-6.5,0.7c-1.4-0.7-2.6-2.4-3.7-5.3l-0.3-0.9l5.6-3.7l1.4,3.8l21.1-8l-2.6-7.2l-18.6,7.1c-2.9,1.1-5,1.3-6.4,0.6
	c-1.4-0.7-2.6-2.5-3.7-5.3l-1.3-3.5c-1-2.9-1.3-5-0.6-6.5c0.6-1.4,2.4-2.7,5.3-3.8l16.9-6.4c2.8-1.1,4.9-1.3,6.4-0.7
	c1.4,0.6,2.6,2.2,3.6,4.8l0.2,0.7l-5.6,3.9l-1.3-3.6l-19.5,7.4l2.5,6.8l18.6-7.1c2.9-1.1,5.1-1.3,6.5-0.7c1.4,0.7,2.6,2.5,3.7,5.3
	l1.6,4.4c1,2.9,1.3,5.1,0.6,6.5C669.1,330.5,667.3,331.8,664.4,332.9z"/>
</svg>
