<?xml version="1.0" encoding="UTF-8"?>
<!-- Created with Inkscape (http://www.inkscape.org/) -->
<svg width="70.985mm" height="68.123mm" version="1.1" viewBox="0 0 70.985336 68.122559" xmlns="http://www.w3.org/2000/svg" xmlns:cc="http://creativecommons.org/ns#" xmlns:dc="http://purl.org/dc/elements/1.1/" xmlns:rdf="http://www.w3.org/1999/02/22-rdf-syntax-ns#">
 <title>mcbcase.svg</title>
 <metadata>
  <rdf:RDF>
   <cc:Work rdf:about="">
    <dc:format>image/svg+xml</dc:format>
    <dc:type rdf:resource="http://purl.org/dc/dcmitype/StillImage"/>
    <dc:title>mcbcase.svg</dc:title>
   </cc:Work>
  </rdf:RDF>
 </metadata>
 <g transform="translate(-.037112 -.24544)">
  <g transform="translate(-33.262 -116.79)" fill-rule="evenodd">
   <path d="m73.55 143.18v21.761c-2.8138 2e-3 -5.4001-1.0745-7.3437-2.8525-2.0541-1.8792-3.3926-4.5431-3.5262-7.5442-0.13381-3.0006 0.96245-5.7721 2.8414-7.827 1.8794-2.0542 4.5434-3.3927 7.5444-3.526 0.16228-7e-3 0.3235-0.0109 0.48401-0.0109zm0 35.813-0.71614 2.014 7.94e-4 -4e-3c-0.31362 0.94935-1.2852 1.5163-2.2641 1.3246l-5.5525-1.1528c-0.97384-0.21446-1.6389-1.1211-1.5486-2.117l-0.0013 3e-3 0.3664-5.3764 0.08379-1.2262-3.9918-2.7195-1.1125 0.52983-4.9498 2.3544c-0.90371 0.40157-1.9465 0.0635-2.4825-0.7535l-3.0521-4.6517c-0.53728-0.84035-0.36654-1.9518 0.40114-2.5922l-0.0036 2e-3 4.0616-3.5429 0.92879-0.81002-0.90456-4.7442-1.1589-0.41095-5.1646-1.8351c-0.92328-0.35422-1.4216-1.3312-1.223-2.2884l1.0589-5.0985c-5.9589 4.22-10.62 10.207-13.026 17.489v13.816c0 4.3779 3.577 7.9572 7.9568 7.9572h32.294zm0-14.052v-21.761c2.8138-2e-3 5.3993 1.0746 7.3431 2.8522 2.0546 1.88 3.393 4.5431 3.5267 7.5441 0.1337 3.0004-0.96273 5.7726-2.842 7.8271-1.8792 2.0547-4.5431 3.3934-7.5438 3.5267-0.16228 7e-3 -0.3235 0.0106-0.48401 0.0106zm30.734 7.2609c0-1.6879-0.0727-3.2628-0.39475-4.9215-0.4438-2.7453-1.361-5.5686-2.4973-8.067l-0.68474 3.2978c-0.19932 0.95772-1.0456 1.6545-2.0334 1.6129l-5.4688-0.37388-1.2263-0.0841-2.7192 3.9907 0.52987 1.1138 2.3142 4.8665-0.0024-2e-3c0.44944 0.89295 0.16334 1.9805-0.66428 2.5375l-4.6517 3.0512c-0.81738 0.53689-1.9085 0.43106-2.5774-0.29708l-3.6026-4.1314-0.80998-0.92879-4.7442 0.90456-0.41169 1.1588-1.0894 3.0639v6.1662h22.731c3.8834 0 7.1349-2.8155 7.8221-6.5056 0.0321-0.20739 0.0624-0.41409 0.0903-0.62163 0.043-0.25894 0.0434-0.5679 0.0434-0.83001 7e-3 -1.6669 0.0473-3.3353 0.0473-5.0003" fill="#4f4c4c"/>
   <path d="m68.77 134.38c-17.088 0.63323-31.623 12.313-35.471 28.431v-28.747c0-4.3787 3.5772-7.9562 7.9576-7.9562h17.71v-6.4167c0-0.75248 0.25259-1.3836 0.76165-1.8867 0.5092-0.50623 1.1407-0.75988 1.8951-0.75988h7.1472v3.2597h-4.171c-0.29351 0-0.50906 0.0734-0.65387 0.22013-0.14485 0.14676-0.21925 0.35983-0.21925 0.64241v4.941h5.0442zm9.8002-14.689v6.4167h17.711c4.3783 0 7.9559 3.5775 7.9559 7.9562v20.785c-6.192-12.144-19.094-20.498-34.005-20.498-0.4893 0-0.97649 0.0109-1.4619 0.0289v-8.2719h5.044v-4.941c0-0.28258-0.07444-0.49565-0.21908-0.64241-0.14535-0.14675-0.35666-0.22013-0.64312-0.22013h-4.1818v-3.2597h7.1434c0.75424 0 1.3864 0.25365 1.8948 0.75988 0.50906 0.50307 0.762 1.1342 0.762 1.8867" fill="#54a226"/>
  </g>
 </g>
</svg>
